<svg version="1.1" id="Layer_1" xmlns="http://www.w3.org/2000/svg" xmlns:xlink="http://www.w3.org/1999/xlink" x="0px" y="0px"
	 width="100%" viewBox="0 0 500 500" enable-background="new 0 0 500 500" xml:space="preserve">
<path fill="#000000" opacity="1.000000" stroke="none" 
	d="
M275.000000,501.000000 
	C183.333359,501.000000 92.166710,501.000000 1.000049,501.000000 
	C1.000033,334.333405 1.000033,167.666794 1.000016,1.000138 
	C167.666565,1.000092 334.333130,1.000092 500.999756,1.000046 
	C500.999847,167.666519 500.999847,334.333038 500.999939,500.999786 
	C425.833344,501.000000 350.666656,501.000000 275.000000,501.000000 
M401.840424,326.317627 
	C403.188721,323.285431 404.558167,320.262421 405.882080,317.219635 
	C418.418243,288.406525 422.285889,258.382874 417.794617,227.370255 
	C414.971283,207.874786 408.851349,189.348480 399.450592,171.970688 
	C386.848846,148.675827 369.675812,129.355576 348.378143,113.714645 
	C332.316101,101.918709 314.462982,93.887238 295.378662,88.124931 
	C276.669159,82.475784 257.427704,82.937416 238.351776,82.362083 
	C229.460144,82.093910 220.369324,84.740814 211.542053,86.806694 
	C193.910278,90.933128 177.634140,98.197060 162.144577,107.756516 
	C143.820389,119.065361 128.514832,133.454803 115.375633,150.221085 
	C101.270973,168.219345 92.551514,188.868271 86.969894,210.956558 
	C83.154305,226.056152 82.998497,241.388336 82.931496,256.820496 
	C82.856697,274.050903 86.251595,290.686401 91.382439,306.872284 
	C97.872192,327.345062 108.911964,345.524078 123.130318,361.614624 
	C142.072067,383.050537 164.913651,399.111298 191.727478,409.145874 
	C210.320908,416.104095 229.816315,419.906830 249.574799,419.653839 
	C263.313843,419.477905 277.091858,416.759308 290.714447,414.384766 
	C311.287842,410.798706 329.519073,401.374268 346.638580,389.822662 
	C356.614899,383.091064 365.318634,374.858337 373.636169,366.067291 
	C384.792603,354.275665 393.971893,341.267029 401.840424,326.317627 
z"/>
<path fill="#4C1E30" opacity="1.000000" stroke="none" 
	d="
M401.661194,326.645691 
	C393.971893,341.267029 384.792603,354.275665 373.636169,366.067291 
	C365.318634,374.858337 356.614899,383.091064 346.638580,389.822662 
	C329.519073,401.374268 311.287842,410.798706 290.714447,414.384766 
	C277.091858,416.759308 263.313843,419.477905 249.574799,419.653839 
	C229.816315,419.906830 210.320908,416.104095 191.727478,409.145874 
	C164.913651,399.111298 142.072067,383.050537 123.130318,361.614624 
	C108.911964,345.524078 97.872192,327.345062 91.382439,306.872284 
	C86.251595,290.686401 82.856697,274.050903 82.931496,256.820496 
	C82.998497,241.388336 83.154305,226.056152 86.969894,210.956558 
	C92.551514,188.868271 101.270973,168.219345 115.375633,150.221085 
	C128.514832,133.454803 143.820389,119.065361 162.144577,107.756516 
	C177.634140,98.197060 193.910278,90.933128 211.542053,86.806694 
	C220.369324,84.740814 229.460144,82.093910 238.351776,82.362083 
	C257.427704,82.937416 276.669159,82.475784 295.378662,88.124931 
	C314.462982,93.887238 332.316101,101.918709 348.378143,113.714645 
	C369.675812,129.355576 386.848846,148.675827 399.450592,171.970688 
	C408.851349,189.348480 414.971283,207.874786 417.794617,227.370255 
	C422.285889,258.382874 418.418243,288.406525 405.882080,317.219635 
	C404.558167,320.262421 403.188721,323.285431 401.661194,326.645691 
M256.752441,417.004578 
	C258.205963,416.687836 259.647095,416.178680 261.114929,416.084045 
	C276.327820,415.103424 291.297821,412.706421 305.384003,406.737396 
	C317.018860,401.807129 328.859863,396.987793 339.635834,390.501587 
	C352.981873,382.468414 364.882324,372.399658 375.256042,360.441376 
	C389.133026,344.444794 399.935638,326.760986 407.044189,306.934570 
	C415.004303,284.733032 418.469299,261.964783 416.245117,238.151489 
	C414.497284,219.437943 410.072266,201.640488 402.734497,184.552521 
	C391.980499,159.508911 375.083710,139.034714 354.241577,121.685898 
	C329.154419,100.803558 300.071503,89.101074 267.865387,85.761742 
	C251.203033,84.034088 234.493408,85.119080 217.800613,88.504211 
	C197.892502,92.541389 179.683075,100.127144 162.640137,110.720528 
	C148.515030,119.500282 136.122391,130.317657 125.247749,143.086914 
	C113.004265,157.463531 103.003693,173.061569 96.148933,190.583679 
	C90.411774,205.248962 87.176888,220.479630 85.722595,236.267838 
	C84.181969,252.993179 85.529243,269.367310 88.849510,285.631317 
	C93.669289,309.240509 103.009567,331.144226 117.980133,349.969818 
	C127.172623,361.529419 137.986420,372.010254 149.159302,381.725220 
	C160.330139,391.438416 173.312332,398.920532 187.387192,403.869690 
	C198.329926,407.717499 209.414764,411.592072 220.761017,413.741089 
	C232.275299,415.921936 244.187622,416.001190 256.752441,417.004578 
z"/>
<path fill="#000000" opacity="1.000000" stroke="none" 
	d="
M256.339050,417.002716 
	C244.187622,416.001190 232.275299,415.921936 220.761017,413.741089 
	C209.414764,411.592072 198.329926,407.717499 187.387192,403.869690 
	C173.312332,398.920532 160.330139,391.438416 149.159302,381.725220 
	C137.986420,372.010254 127.172623,361.529419 117.980133,349.969818 
	C103.009567,331.144226 93.669289,309.240509 88.849510,285.631317 
	C85.529243,269.367310 84.181969,252.993179 85.722595,236.267838 
	C87.176888,220.479630 90.411774,205.248962 96.148933,190.583679 
	C103.003693,173.061569 113.004265,157.463531 125.247749,143.086914 
	C136.122391,130.317657 148.515030,119.500282 162.640137,110.720528 
	C179.683075,100.127144 197.892502,92.541389 217.800613,88.504211 
	C234.493408,85.119080 251.203033,84.034088 267.865387,85.761742 
	C300.071503,89.101074 329.154419,100.803558 354.241577,121.685898 
	C375.083710,139.034714 391.980499,159.508911 402.734497,184.552521 
	C410.072266,201.640488 414.497284,219.437943 416.245117,238.151489 
	C418.469299,261.964783 415.004303,284.733032 407.044189,306.934570 
	C399.935638,326.760986 389.133026,344.444794 375.256042,360.441376 
	C364.882324,372.399658 352.981873,382.468414 339.635834,390.501587 
	C328.859863,396.987793 317.018860,401.807129 305.384003,406.737396 
	C291.297821,412.706421 276.327820,415.103424 261.114929,416.084045 
	C259.647095,416.178680 258.205963,416.687836 256.339050,417.002716 
M322.462738,313.761353 
	C323.591522,313.590393 324.720337,313.419434 325.608917,312.595490 
	C324.451447,312.807465 323.293945,313.019440 322.462738,313.761353 
M299.463623,313.760193 
	C300.593048,313.590332 301.722504,313.420471 302.611084,312.597229 
	C301.453735,312.807922 300.296417,313.018646 299.463623,313.760193 
M213.636475,288.138062 
	C213.089966,287.674164 212.074585,287.217438 212.067398,286.745331 
	C211.961563,279.804993 211.915466,272.860962 212.072769,265.922699 
	C212.094467,264.965302 213.281769,264.034332 213.967346,262.241577 
	C212.427704,255.409164 207.593063,260.692352 204.662338,258.974854 
	C204.296509,259.374847 203.930664,259.774811 203.564835,260.174774 
	C204.328979,261.480804 205.093140,262.786804 205.938034,265.013458 
	C205.947250,267.482849 206.064972,269.957550 205.943588,272.420502 
	C205.671173,277.947845 205.279999,283.469330 204.384766,289.518677 
	C203.151886,293.500824 206.012314,292.994507 208.270004,292.979004 
	C211.066101,292.959808 214.733810,293.999542 213.636475,288.138062 
M315.840576,292.964813 
	C321.491486,292.973206 327.146484,293.094116 332.789703,292.889893 
	C333.849487,292.851562 334.862213,291.514709 335.896637,290.777069 
	C334.921692,289.864502 334.069946,288.434998 332.941589,288.166016 
	C331.422852,287.803986 329.692719,288.363464 328.049927,288.479156 
	C325.521027,288.657227 322.989227,288.794281 319.997406,288.976868 
	C319.997406,286.450378 320.182465,284.785461 319.961487,283.176361 
	C319.381897,278.955872 321.159546,277.578186 325.265289,277.921143 
	C328.128967,278.160370 331.052307,277.685486 333.763977,277.539551 
	C334.774719,273.900085 333.527954,272.742828 330.406006,272.971039 
	C328.091705,273.140198 325.744385,272.858612 323.430206,273.028442 
	C319.796173,273.295105 319.983551,270.930054 319.977814,268.491974 
	C319.972046,266.038422 319.824066,263.746552 323.446320,263.962036 
	C326.592194,264.149200 329.785553,264.203094 332.902893,263.841583 
	C333.985107,263.716064 334.902374,262.168671 335.894958,261.270660 
	C334.876221,260.517242 333.876587,259.144745 332.835632,259.112701 
	C326.859283,258.928680 320.873108,259.062561 314.128235,259.484161 
	C314.085480,269.287933 314.008270,279.091827 314.040283,288.895355 
	C314.044647,290.234863 314.594086,291.572632 315.840576,292.964813 
M159.116058,259.454712 
	C159.072571,269.609497 159.003418,279.764343 159.025864,289.918976 
	C159.028091,290.919006 159.591705,291.917755 160.768814,292.955811 
	C164.056946,293.474182 165.261078,292.059052 165.029572,288.788879 
	C164.810913,285.699921 164.982620,282.583313 164.982620,279.478882 
	C165.452103,279.081421 165.921585,278.683990 166.391052,278.286530 
	C168.329010,279.451019 170.618942,280.279236 172.125290,281.856049 
	C174.599228,284.445709 176.776855,287.387390 178.690720,290.425507 
	C181.034790,294.146454 183.754471,293.398163 187.024719,292.021179 
	C184.611893,288.658936 182.761292,285.281494 180.149673,282.663177 
	C177.485794,279.992462 178.020844,278.123108 180.440125,276.100891 
	C184.158707,272.992615 184.938675,269.110992 182.906494,264.958740 
	C180.950989,260.963135 177.414581,258.972504 172.862915,259.009674 
	C168.540512,259.044952 164.217941,259.059357 159.116058,259.454712 
M379.958099,270.967957 
	C379.967102,273.460541 379.883545,275.957672 380.004822,278.444763 
	C380.240021,283.270020 380.590332,288.089691 381.736084,292.948273 
	C382.860138,292.920532 383.984192,292.892792 385.787689,292.390900 
	C385.858459,283.325592 385.984589,274.260101 385.957306,265.195068 
	C385.951202,263.174255 385.405762,261.155121 384.288696,259.070679 
	C380.256134,258.007263 378.866058,261.384583 377.027863,263.644470 
	C374.315063,266.979675 371.952820,270.600006 368.975311,274.748047 
	C365.774261,270.591034 362.819214,267.464233 360.728271,263.839020 
	C358.618134,260.180542 356.010040,258.489594 351.107178,259.464813 
	C351.071411,269.280853 351.001648,279.097015 351.039764,288.912781 
	C351.044952,290.246490 351.589783,291.578125 352.766510,292.947968 
	C355.935974,293.420837 357.228546,292.253601 357.106995,288.872070 
	C356.879364,282.539032 357.041534,276.191956 357.041534,268.409607 
	C360.198090,272.584686 362.292511,275.482880 364.522827,278.272430 
	C367.302795,281.749573 370.326935,281.806915 373.025421,278.501129 
	C375.301788,275.712463 377.515625,272.872803 379.958099,270.967957 
M208.242432,128.295120 
	C208.165009,128.783829 208.020035,129.272491 208.019821,129.761230 
	C208.005341,162.120972 207.991486,194.480728 208.042801,226.840378 
	C208.044678,228.025620 208.695084,229.209839 209.198853,231.002457 
	C210.125763,231.339569 211.052658,231.676697 212.344467,232.815811 
	C237.613190,232.876770 262.881927,232.945297 288.150665,232.956360 
	C288.801697,232.956635 289.452972,232.327454 290.870117,231.862289 
	C291.580963,230.352722 292.906616,228.845444 292.912201,227.333282 
	C293.031342,195.047028 293.039673,162.760025 292.883087,130.474091 
	C292.875854,128.987549 291.129761,127.509430 289.719818,125.270844 
	C264.121979,125.186241 238.524124,125.093727 212.926193,125.059334 
	C212.234360,125.058403 211.541672,125.685539 210.382217,126.271080 
	C209.927521,126.800453 209.472839,127.329834 208.242432,128.295120 
M283.057526,288.897919 
	C281.451233,287.768799 279.641846,286.842468 278.275238,285.473999 
	C273.399292,280.591522 272.779480,274.347046 276.456726,269.217804 
	C280.598175,263.441101 284.687042,262.774689 291.942780,266.346954 
	C292.892456,266.814545 295.436676,266.262329 295.554199,265.775238 
	C295.876526,264.439087 295.832520,262.337952 294.985596,261.514130 
	C291.419495,258.045319 278.890839,257.881042 275.372925,261.516113 
	C270.083069,266.982147 266.668121,275.448700 270.652924,284.346405 
	C273.852600,291.491028 279.619843,294.642853 288.642181,293.737000 
	C293.185089,293.280945 298.612671,289.573181 298.875824,286.322052 
	C299.165405,282.744385 298.941864,279.125214 298.941864,275.661804 
	C289.849762,274.168030 288.991180,274.561401 289.513641,278.891327 
	C291.199371,279.831879 293.801941,280.790283 293.717651,281.326019 
	C293.419373,283.222229 292.660065,285.661560 291.224823,286.616547 
	C289.153259,287.994995 286.338745,288.256805 283.057526,288.897919 
M230.332504,288.944611 
	C235.005188,294.153595 240.837006,294.281677 247.174576,293.117096 
	C252.008301,292.228851 254.040192,288.891113 254.379242,284.791656 
	C254.694016,280.986023 253.544785,277.170227 249.226578,275.589630 
	C245.844330,274.351593 242.335602,273.401215 239.086060,271.887299 
	C237.809814,271.292725 236.346954,269.531036 236.314911,268.266754 
	C236.281769,266.957550 237.731140,264.630859 238.794769,264.468323 
	C241.376450,264.073792 244.570419,263.867676 246.678101,265.064362 
	C250.027176,266.965881 251.273621,265.972443 253.003494,262.193298 
	C249.199326,260.731689 245.838745,258.924011 242.258301,258.192810 
	C237.559021,257.233093 231.729904,262.000336 231.044250,266.671661 
	C230.178818,272.567963 232.268433,275.522400 238.275604,277.074127 
	C240.493744,277.647064 242.945526,277.990845 244.770676,279.214722 
	C246.497269,280.372498 248.100616,282.398804 248.617630,284.345947 
	C248.830826,285.148804 246.218018,287.469360 244.618942,287.804810 
	C242.269302,288.297699 239.590424,287.968170 237.209595,287.365570 
	C234.569382,286.697296 232.036545,284.706909 230.332504,288.944611 
M141.327118,261.870514 
	C131.446274,254.573563 124.585495,258.817444 118.581932,265.999146 
	C113.313789,272.301117 115.202492,284.629761 122.167519,290.591553 
	C127.013023,294.739105 138.216095,295.752106 145.195648,288.094177 
	C144.080795,286.804688 142.929626,285.473206 141.806793,284.174500 
	C133.494095,289.655212 129.604599,289.958130 124.707764,285.661133 
	C121.070213,282.469177 119.765900,274.038055 122.236137,269.946991 
	C126.121986,263.511444 131.086243,262.715057 142.500549,267.337585 
	C142.240448,265.335815 142.044754,263.829834 141.327118,261.870514 
M178.132584,323.493378 
	C179.025986,323.493378 179.919403,323.493378 180.406204,323.493378 
	C179.797256,321.072296 178.235977,318.504242 178.893585,316.784912 
	C180.736221,311.967377 178.456436,311.721222 174.853912,312.091339 
	C173.427597,312.237885 171.991379,312.287903 170.702332,312.372498 
	C170.702332,316.329498 170.702332,319.879303 170.702332,323.429077 
	C171.044098,323.671326 171.385849,323.913574 171.727615,324.155792 
	C172.750214,322.590515 173.772812,321.025238 175.109329,318.979462 
	C176.102036,320.654755 176.824448,321.873932 178.132584,323.493378 
M342.993652,315.910095 
	C342.993652,318.458893 342.993652,321.007660 342.993652,323.790375 
	C344.175751,323.854401 345.595154,324.294708 346.742920,323.914642 
	C348.864716,323.212128 351.931641,322.510254 352.615662,320.941010 
	C353.859039,318.088470 353.422424,314.331299 350.047546,312.814087 
	C348.025177,311.904877 345.330719,312.490753 342.938324,312.404663 
	C342.927032,313.299194 342.915710,314.193726 342.993652,315.910095 
M200.578033,314.267120 
	C201.319916,313.972443 202.061798,313.677765 202.803696,313.383118 
	C202.672745,313.075897 202.541794,312.768646 202.410843,312.461426 
	C199.446335,312.461426 196.481842,312.461426 193.732361,312.461426 
	C193.732361,316.426727 193.732361,319.959198 193.732361,323.369507 
	C196.710648,323.369507 199.591476,323.369507 202.472290,323.369507 
	C202.484528,323.062561 202.496765,322.755646 202.509003,322.448700 
	C200.345993,322.090607 198.182983,321.732483 194.657669,321.148834 
	C196.943420,319.524597 197.899673,318.845093 198.953003,318.096588 
	C197.513184,317.356689 196.313583,316.740234 195.113983,316.123749 
	C195.487274,315.558319 195.860565,314.992859 196.233856,314.427429 
	C197.442841,314.308136 198.651840,314.188843 200.578033,314.267120 
M222.167603,313.463287 
	C223.007339,313.705231 223.847076,313.947174 224.686813,314.189117 
	C224.759216,313.636017 224.831604,313.082916 224.904007,312.529816 
	C221.804459,312.376160 218.704910,312.222534 215.690948,312.073151 
	C215.690948,316.451965 215.690948,319.991913 215.690948,323.504761 
	C223.428070,324.476410 224.218109,324.269562 224.222931,321.712463 
	C222.386124,322.146362 220.439072,322.606323 218.237122,323.126495 
	C218.237122,320.503815 218.460739,318.851532 218.188293,317.285553 
	C217.695709,314.454285 219.255035,313.824402 222.167603,313.463287 
M157.463272,314.716858 
	C157.756531,314.188507 158.419189,313.328094 158.287598,313.181671 
	C156.343277,311.018738 150.697174,311.732727 148.327820,314.584686 
	C149.863968,314.495972 151.188492,314.419464 153.282196,314.298553 
	C152.839676,317.750916 152.449219,320.797150 152.045120,323.949738 
	C152.951965,323.893311 154.039078,323.825684 154.084717,323.822845 
	C155.105652,320.290283 155.947906,317.375977 157.463272,314.716858 
M129.739487,318.119232 
	C131.487549,318.878693 133.235596,319.638153 134.983658,320.397614 
	C134.860321,320.949402 134.737000,321.501160 134.613663,322.052917 
	C132.583862,322.052917 130.554062,322.052917 128.524261,322.052917 
	C129.585541,323.491791 131.292618,324.930389 132.580276,324.621399 
	C134.202698,324.232025 135.850235,322.631104 136.740417,321.114624 
	C137.130066,320.450867 135.975342,318.321167 134.984940,317.525482 
	C133.046921,315.968536 130.731903,314.880859 127.793350,313.136017 
	C128.316742,314.771118 128.775223,316.203430 129.739487,318.119232 
M241.015289,318.455505 
	C242.083176,319.933289 238.485397,323.437775 243.259674,324.104767 
	C243.259674,320.434204 243.259674,317.507812 243.259674,314.621826 
	C244.624176,314.528290 245.690338,314.455170 246.756516,314.382080 
	C246.737717,313.900665 246.718918,313.419281 246.700134,312.937866 
	C243.543808,312.937866 240.387497,312.937866 237.629196,312.937866 
	C239.079346,314.953766 240.047333,316.299408 241.015289,318.455505 
M280.434540,318.612396 
	C279.335785,317.647400 278.237000,316.682373 277.138245,315.717346 
	C278.650208,315.169861 280.129944,314.476990 281.686798,314.131866 
	C282.559296,313.938446 283.559418,314.320831 284.502045,314.443817 
	C284.559906,313.859955 284.617767,313.276093 284.675629,312.692230 
	C281.417938,312.423340 278.160248,312.154480 275.334717,311.921265 
	C275.334717,316.350006 275.334717,320.075897 275.334717,323.836792 
	C275.989227,323.836792 276.955658,323.836792 278.488190,323.836792 
	C274.534851,319.756866 279.141052,320.486115 280.434540,318.612396 
M369.608734,314.020752 
	C370.190155,313.878876 370.771576,313.737000 371.352997,313.595093 
	C371.301178,313.312653 371.249359,313.030212 371.197540,312.747772 
	C370.436584,313.149078 369.675629,313.550385 369.608734,314.020752 
M296.957764,318.356262 
	C297.119476,318.768127 297.281189,319.179962 297.784363,320.461487 
	C297.784363,318.511200 297.784363,317.472382 297.784363,315.436249 
	C297.268707,316.812195 297.112762,317.228333 296.957764,318.356262 
M304.533508,316.474640 
	C304.359680,317.439850 304.185852,318.405060 304.011993,319.370270 
	C304.236328,319.402161 304.460663,319.434052 304.684998,319.465912 
	C304.763336,318.650391 304.841705,317.834839 304.533508,316.474640 
M320.940216,319.059082 
	C320.873840,318.186707 320.807465,317.314301 320.741058,316.441925 
	C320.503235,316.468689 320.265381,316.495453 320.027557,316.522247 
	C320.176178,317.543732 320.324768,318.565247 320.940216,319.059082 
M327.464844,319.509430 
	C327.639893,318.543304 327.814911,317.577209 327.989929,316.611084 
	C327.764313,316.579041 327.538696,316.546997 327.313080,316.514954 
	C327.235840,317.330811 327.158600,318.146637 327.464844,319.509430 
M300.672455,323.041595 
	C301.291779,322.927765 301.911072,322.813904 302.530396,322.700073 
	C302.445404,322.447571 302.360413,322.195068 302.275452,321.942566 
	C301.522949,322.271454 300.770477,322.600342 300.672455,323.041595 
M325.479645,322.535614 
	C324.545654,322.377258 323.611633,322.218903 322.677643,322.060516 
	C322.653229,322.350433 322.628845,322.640320 322.604431,322.930206 
	C323.384949,322.930206 324.165436,322.930206 325.479645,322.535614 
M368.871674,322.906738 
	C369.417145,322.810944 369.962585,322.715149 370.508057,322.619354 
	C370.464691,322.410492 370.421326,322.201660 370.377960,321.992828 
	C369.715973,322.152161 369.054016,322.311523 368.871674,322.906738 
z"/>
<path fill="#010001" opacity="1.000000" stroke="none" 
	d="
M211.979568,232.013809 
	C211.052658,231.676697 210.125763,231.339569 209.192505,230.207733 
	C209.130173,195.561752 209.074158,161.710480 209.018143,127.859215 
	C209.472839,127.329834 209.927521,126.800453 211.090195,126.221680 
	C237.929947,126.123978 264.061737,126.075676 290.193512,126.027382 
	C291.129761,127.509430 292.875854,128.987549 292.883087,130.474091 
	C293.039673,162.760025 293.031342,195.047028 292.912201,227.333282 
	C292.906616,228.845444 291.580963,230.352722 290.014191,231.871765 
	C263.432037,231.925446 237.705795,231.969620 211.979568,232.013809 
M276.503235,211.293106 
	C265.493774,211.199478 254.484344,211.093079 243.474670,211.054932 
	C242.992142,211.053253 242.507446,211.676163 242.000381,212.602448 
	C241.964844,212.997192 241.929306,213.391953 241.420685,214.362808 
	C253.466553,214.503174 265.512390,214.647110 277.558563,214.751129 
	C277.748077,214.752762 277.941833,214.263306 278.464996,213.663895 
	C277.974396,213.106308 277.483765,212.548721 276.503235,211.293106 
M242.469879,158.358139 
	C242.336868,159.269150 242.203842,160.180145 242.432968,161.878510 
	C253.487686,161.917297 264.542419,161.976395 275.597015,161.952393 
	C276.392365,161.950668 277.186371,161.342316 278.473114,160.686447 
	C277.983154,159.785583 277.493225,158.884720 276.651367,157.177841 
	C266.099670,157.121216 255.547958,157.047470 244.996262,157.049606 
	C244.348801,157.049728 243.701492,157.649536 242.469879,158.358139 
M242.068680,185.742737 
	C243.404388,186.492905 244.722214,187.851913 246.078751,187.891754 
	C253.389236,188.106369 260.709320,187.993546 268.026093,187.993652 
	C271.575684,187.993698 275.125305,187.993652 279.851440,187.993652 
	C278.247986,186.314392 277.613800,185.650223 276.602631,184.201233 
	C266.456818,184.134415 256.310974,184.033539 246.165207,184.041443 
	C244.809631,184.042496 243.454468,184.594086 242.068680,185.742737 
M232.868057,168.863907 
	C234.242477,166.908875 236.134628,165.122726 236.843185,162.950500 
	C237.528168,160.850479 237.456696,158.223480 236.854828,156.068970 
	C236.334412,154.206039 234.462341,151.172379 233.431534,151.268570 
	C228.986160,151.683395 223.704880,148.527252 220.171234,153.713028 
	C220.084076,153.840927 220.086105,154.029022 220.044128,154.188400 
	C217.125854,165.266678 220.061356,169.052338 231.507828,168.971436 
	C231.673706,168.970276 231.839569,168.962845 232.868057,168.863907 
M220.035660,211.687317 
	C219.378250,222.877213 222.700073,222.087097 231.489304,221.902069 
	C231.974258,221.891861 232.612289,221.826279 232.910522,221.522690 
	C234.311951,220.096024 236.638687,218.677750 236.796936,217.074997 
	C237.918167,205.718811 237.676956,205.955414 226.424927,204.879257 
	C221.248367,204.384155 219.777451,206.247330 220.035660,211.687317 
M219.928467,192.088684 
	C222.407227,193.052612 224.858719,194.756622 227.369583,194.849152 
	C236.974640,195.203110 237.065933,195.008316 236.917343,185.635803 
	C236.883087,183.473572 236.420822,179.647552 235.531631,179.454056 
	C231.325577,178.538742 226.823898,178.075409 222.608765,178.691162 
	C221.428696,178.863556 220.657181,183.212708 220.091415,185.734116 
	C219.702087,187.469147 219.990448,189.356232 219.928467,192.088684 
M210.739777,179.499985 
	C210.739777,195.675034 210.739777,211.850098 210.739777,228.025146 
	C211.066391,228.021088 211.393021,228.017044 211.719635,228.012985 
	C211.719635,195.279572 211.719635,162.546158 211.719635,129.812744 
	C211.392838,129.809525 211.066040,129.806290 210.739243,129.803055 
	C210.739243,146.035370 210.739243,162.267670 210.739777,179.499985 
M290.197388,210.498947 
	C290.197388,183.508179 290.197388,156.517410 290.197388,129.526642 
	C289.908234,129.528732 289.619080,129.530823 289.329926,129.532898 
	C289.329926,162.465347 289.329926,195.397781 289.329926,228.330215 
	C289.619110,228.335236 289.908264,228.340240 290.197449,228.345261 
	C290.197449,222.729523 290.197449,217.113800 290.197388,210.498947 
z"/>
<path fill="#4B1D2F" opacity="1.000000" stroke="none" 
	d="
M351.884125,259.090393 
	C356.010040,258.489594 358.618134,260.180542 360.728271,263.839020 
	C362.819214,267.464233 365.774261,270.591034 368.975311,274.748047 
	C371.952820,270.600006 374.315063,266.979675 377.027863,263.644470 
	C378.866058,261.384583 380.256134,258.007263 384.671112,259.560669 
	C385.071777,270.988800 385.090027,281.926910 385.108276,292.865051 
	C383.984192,292.892792 382.860138,292.920532 381.357727,292.469116 
	C380.979401,284.002167 380.979401,276.014374 380.979401,268.026581 
	C380.640167,268.008514 380.300934,267.990448 379.961700,267.972412 
	C379.893524,268.666840 379.825317,269.361298 379.757141,270.055725 
	C377.515625,272.872803 375.301788,275.712463 373.025421,278.501129 
	C370.326935,281.806915 367.302795,281.749573 364.522827,278.272430 
	C362.292511,275.482880 360.198090,272.584686 357.041534,268.409607 
	C357.041534,276.191956 356.879364,282.539032 357.106995,288.872070 
	C357.228546,292.253601 355.935974,293.420837 352.368469,292.468597 
	C351.941681,281.022949 351.912903,270.056671 351.884125,259.090393 
z"/>
<path fill="#491A2D" opacity="1.000000" stroke="none" 
	d="
M159.895447,259.082916 
	C164.217941,259.059357 168.540512,259.044952 172.862915,259.009674 
	C177.414581,258.972504 180.950989,260.963135 182.906494,264.958740 
	C184.938675,269.110992 184.158707,272.992615 180.440125,276.100891 
	C178.020844,278.123108 177.485794,279.992462 180.149673,282.663177 
	C182.761292,285.281494 184.611893,288.658936 187.024719,292.021179 
	C183.754471,293.398163 181.034790,294.146454 178.690720,290.425507 
	C176.776855,287.387390 174.599228,284.445709 172.125290,281.856049 
	C170.618942,280.279236 168.329010,279.451019 166.391052,278.286530 
	C165.921585,278.683990 165.452103,279.081421 164.982620,279.478882 
	C164.982620,282.583313 164.810913,285.699921 165.029572,288.788879 
	C165.261078,292.059052 164.056946,293.474182 160.377838,292.475525 
	C159.956375,281.024475 159.925903,270.053680 159.895447,259.082916 
M173.458435,273.086487 
	C176.375671,273.270355 178.866302,271.817444 178.453156,269.105072 
	C178.170822,267.251526 175.740204,264.878021 173.794418,264.277069 
	C166.763382,262.105591 164.585327,264.080231 165.033585,271.428406 
	C165.080536,272.197876 165.439789,272.948273 165.788452,274.183167 
	C168.169739,273.858490 170.403046,273.553986 173.458435,273.086487 
z"/>
<path fill="#4C1E30" opacity="1.000000" stroke="none" 
	d="
M283.449371,288.946472 
	C286.338745,288.256805 289.153259,287.994995 291.224823,286.616547 
	C292.660065,285.661560 293.419373,283.222229 293.717651,281.326019 
	C293.801941,280.790283 291.199371,279.831879 289.513641,278.891327 
	C288.991180,274.561401 289.849762,274.168030 298.941864,275.661804 
	C298.941864,279.125214 299.165405,282.744385 298.875824,286.322052 
	C298.612671,289.573181 293.185089,293.280945 288.642181,293.737000 
	C279.619843,294.642853 273.852600,291.491028 270.652924,284.346405 
	C266.668121,275.448700 270.083069,266.982147 275.372925,261.516113 
	C278.890839,257.881042 291.419495,258.045319 294.985596,261.514130 
	C295.832520,262.337952 295.876526,264.439087 295.554199,265.775238 
	C295.436676,266.262329 292.892456,266.814545 291.942780,266.346954 
	C284.687042,262.774689 280.598175,263.441101 276.456726,269.217804 
	C272.779480,274.347046 273.399292,280.591522 278.275238,285.473999 
	C279.641846,286.842468 281.451233,287.768799 283.449371,288.946472 
z"/>
<path fill="#4C1E30" opacity="1.000000" stroke="none" 
	d="
M230.175415,288.604980 
	C232.036545,284.706909 234.569382,286.697296 237.209595,287.365570 
	C239.590424,287.968170 242.269302,288.297699 244.618942,287.804810 
	C246.218018,287.469360 248.830826,285.148804 248.617630,284.345947 
	C248.100616,282.398804 246.497269,280.372498 244.770676,279.214722 
	C242.945526,277.990845 240.493744,277.647064 238.275604,277.074127 
	C232.268433,275.522400 230.178818,272.567963 231.044250,266.671661 
	C231.729904,262.000336 237.559021,257.233093 242.258301,258.192810 
	C245.838745,258.924011 249.199326,260.731689 253.003494,262.193298 
	C251.273621,265.972443 250.027176,266.965881 246.678101,265.064362 
	C244.570419,263.867676 241.376450,264.073792 238.794769,264.468323 
	C237.731140,264.630859 236.281769,266.957550 236.314911,268.266754 
	C236.346954,269.531036 237.809814,271.292725 239.086060,271.887299 
	C242.335602,273.401215 245.844330,274.351593 249.226578,275.589630 
	C253.544785,277.170227 254.694016,280.986023 254.379242,284.791656 
	C254.040192,288.891113 252.008301,292.228851 247.174576,293.117096 
	C240.837006,294.281677 235.005188,294.153595 230.175415,288.604980 
z"/>
<path fill="#461629" opacity="1.000000" stroke="none" 
	d="
M314.890289,259.088562 
	C320.873108,259.062561 326.859283,258.928680 332.835632,259.112701 
	C333.876587,259.144745 334.876221,260.517242 335.894958,261.270660 
	C334.902374,262.168671 333.985107,263.716064 332.902893,263.841583 
	C329.785553,264.203094 326.592194,264.149200 323.446320,263.962036 
	C319.824066,263.746552 319.972046,266.038422 319.977814,268.491974 
	C319.983551,270.930054 319.796173,273.295105 323.430206,273.028442 
	C325.744385,272.858612 328.091705,273.140198 330.406006,272.971039 
	C333.527954,272.742828 334.774719,273.900085 333.763977,277.539551 
	C331.052307,277.685486 328.128967,278.160370 325.265289,277.921143 
	C321.159546,277.578186 319.381897,278.955872 319.961487,283.176361 
	C320.182465,284.785461 319.997406,286.450378 319.997406,288.976868 
	C322.989227,288.794281 325.521027,288.657227 328.049927,288.479156 
	C329.692719,288.363464 331.422852,287.803986 332.941589,288.166016 
	C334.069946,288.434998 334.921692,289.864502 335.896637,290.777069 
	C334.862213,291.514709 333.849487,292.851562 332.789703,292.889893 
	C327.146484,293.094116 321.491486,292.973206 315.409637,292.477356 
	C314.949219,281.022766 314.919769,270.055664 314.890289,259.088562 
z"/>
<path fill="#4D1F31" opacity="1.000000" stroke="none" 
	d="
M141.588089,262.097168 
	C142.044754,263.829834 142.240448,265.335815 142.500549,267.337585 
	C131.086243,262.715057 126.121986,263.511444 122.236137,269.946991 
	C119.765900,274.038055 121.070213,282.469177 124.707764,285.661133 
	C129.604599,289.958130 133.494095,289.655212 141.806793,284.174500 
	C142.929626,285.473206 144.080795,286.804688 145.195648,288.094177 
	C138.216095,295.752106 127.013023,294.739105 122.167519,290.591553 
	C115.202492,284.629761 113.313789,272.301117 118.581932,265.999146 
	C124.585495,258.817444 131.446274,254.573563 141.588089,262.097168 
z"/>
<path fill="#451528" opacity="1.000000" stroke="none" 
	d="
M205.857300,264.092834 
	C205.093140,262.786804 204.328979,261.480804 203.564835,260.174774 
	C203.930664,259.774811 204.296509,259.374847 204.662338,258.974854 
	C207.593063,260.692352 212.427704,255.409164 213.519287,262.621948 
	C212.422424,263.342377 211.213135,263.672943 211.207199,264.023865 
	C211.075546,271.797211 211.019547,279.574005 211.176956,287.345520 
	C211.187897,287.886047 212.972061,288.390686 213.931625,288.912018 
	C214.733810,293.999542 211.066101,292.959808 208.270004,292.979004 
	C206.012314,292.994507 203.151886,293.500824 205.065155,289.172974 
	C206.012482,288.642212 206.510834,288.459900 206.513123,288.271606 
	C206.610733,280.206360 206.664246,272.140564 206.723175,264.074890 
	C206.434555,264.080872 206.145920,264.086853 205.857300,264.092834 
z"/>
<path fill="#BAA9B1" opacity="1.000000" stroke="none" 
	d="
M208.630280,128.077164 
	C209.074158,161.710480 209.130173,195.561752 209.114716,229.903778 
	C208.695084,229.209839 208.044678,228.025620 208.042801,226.840378 
	C207.991486,194.480728 208.005341,162.120972 208.019821,129.761230 
	C208.020035,129.272491 208.165009,128.783829 208.630280,128.077164 
z"/>
<path fill="#592F3F" opacity="1.000000" stroke="none" 
	d="
M177.839722,323.293213 
	C176.824448,321.873932 176.102036,320.654755 175.109329,318.979462 
	C173.772812,321.025238 172.750214,322.590515 171.727615,324.155792 
	C171.385849,323.913574 171.044098,323.671326 170.702332,323.429077 
	C170.702332,319.879303 170.702332,316.329498 170.702332,312.372498 
	C171.991379,312.287903 173.427597,312.237885 174.853912,312.091339 
	C178.456436,311.721222 180.736221,311.967377 178.893585,316.784912 
	C178.235977,318.504242 179.797256,321.072296 180.406204,323.493378 
	C179.919403,323.493378 179.025986,323.493378 177.839722,323.293213 
z"/>
<path fill="#977D87" opacity="1.000000" stroke="none" 
	d="
M289.956665,125.649109 
	C264.061737,126.075676 237.929947,126.123978 211.323792,126.096031 
	C211.541672,125.685539 212.234360,125.058403 212.926193,125.059334 
	C238.524124,125.093727 264.121979,125.186241 289.956665,125.649109 
z"/>
<path fill="#EDEDED" opacity="1.000000" stroke="none" 
	d="
M212.162018,232.414810 
	C237.705795,231.969620 263.432037,231.925446 289.631226,231.936539 
	C289.452972,232.327454 288.801697,232.956635 288.150665,232.956360 
	C262.881927,232.945297 237.613190,232.876770 212.162018,232.414810 
z"/>
<path fill="#4B1D2F" opacity="1.000000" stroke="none" 
	d="
M342.949036,315.499176 
	C342.915710,314.193726 342.927032,313.299194 342.938324,312.404663 
	C345.330719,312.490753 348.025177,311.904877 350.047546,312.814087 
	C353.422424,314.331299 353.859039,318.088470 352.615662,320.941010 
	C351.931641,322.510254 348.864716,323.212128 346.742920,323.914642 
	C345.595154,324.294708 344.175751,323.854401 342.993652,323.790375 
	C342.993652,321.007660 342.993652,318.458893 342.949036,315.499176 
M349.388885,315.011902 
	C344.676056,313.544586 344.050842,314.766998 345.579773,322.459351 
	C350.732117,322.668121 351.922760,320.794250 349.388885,315.011902 
z"/>
<path fill="#4D1F31" opacity="1.000000" stroke="none" 
	d="
M200.219421,314.168335 
	C198.651840,314.188843 197.442841,314.308136 196.233856,314.427429 
	C195.860565,314.992859 195.487274,315.558319 195.113983,316.123749 
	C196.313583,316.740234 197.513184,317.356689 198.953003,318.096588 
	C197.899673,318.845093 196.943420,319.524597 194.657669,321.148834 
	C198.182983,321.732483 200.345993,322.090607 202.509003,322.448700 
	C202.496765,322.755646 202.484528,323.062561 202.472290,323.369507 
	C199.591476,323.369507 196.710648,323.369507 193.732361,323.369507 
	C193.732361,319.959198 193.732361,316.426727 193.732361,312.461426 
	C196.481842,312.461426 199.446335,312.461426 202.410843,312.461426 
	C202.541794,312.768646 202.672745,313.075897 202.803696,313.383118 
	C202.061798,313.677765 201.319916,313.972443 200.219421,314.168335 
z"/>
<path fill="#532738" opacity="1.000000" stroke="none" 
	d="
M221.840225,313.581299 
	C219.255035,313.824402 217.695709,314.454285 218.188293,317.285553 
	C218.460739,318.851532 218.237122,320.503815 218.237122,323.126495 
	C220.439072,322.606323 222.386124,322.146362 224.222931,321.712463 
	C224.218109,324.269562 223.428070,324.476410 215.690948,323.504761 
	C215.690948,319.991913 215.690948,316.451965 215.690948,312.073151 
	C218.704910,312.222534 221.804459,312.376160 224.904007,312.529816 
	C224.831604,313.082916 224.759216,313.636017 224.686813,314.189117 
	C223.847076,313.947174 223.007339,313.705231 221.840225,313.581299 
z"/>
<path fill="#491A2D" opacity="1.000000" stroke="none" 
	d="
M157.126724,314.589233 
	C155.947906,317.375977 155.105652,320.290283 154.084717,323.822845 
	C154.039078,323.825684 152.951965,323.893311 152.045120,323.949738 
	C152.449219,320.797150 152.839676,317.750916 153.282196,314.298553 
	C151.188492,314.419464 149.863968,314.495972 148.327820,314.584686 
	C150.697174,311.732727 156.343277,311.018738 158.287598,313.181671 
	C158.419189,313.328094 157.756531,314.188507 157.126724,314.589233 
z"/>
<path fill="#592F3F" opacity="1.000000" stroke="none" 
	d="
M129.486603,317.877502 
	C128.775223,316.203430 128.316742,314.771118 127.793350,313.136017 
	C130.731903,314.880859 133.046921,315.968536 134.984940,317.525482 
	C135.975342,318.321167 137.130066,320.450867 136.740417,321.114624 
	C135.850235,322.631104 134.202698,324.232025 132.580276,324.621399 
	C131.292618,324.930389 129.585541,323.491791 128.524261,322.052917 
	C130.554062,322.052917 132.583862,322.052917 134.613663,322.052917 
	C134.737000,321.501160 134.860321,320.949402 134.983658,320.397614 
	C133.235596,319.638153 131.487549,318.878693 129.486603,317.877502 
z"/>
<path fill="#491A2D" opacity="1.000000" stroke="none" 
	d="
M241.015305,318.050293 
	C240.047333,316.299408 239.079346,314.953766 237.629196,312.937866 
	C240.387497,312.937866 243.543808,312.937866 246.700134,312.937866 
	C246.718918,313.419281 246.737717,313.900665 246.756516,314.382080 
	C245.690338,314.455170 244.624176,314.528290 243.259674,314.621826 
	C243.259674,317.507812 243.259674,320.434204 243.259674,324.104767 
	C238.485397,323.437775 242.083176,319.933289 241.015305,318.050293 
z"/>
<path fill="#491A2D" opacity="1.000000" stroke="none" 
	d="
M280.458771,318.960754 
	C279.141052,320.486115 274.534851,319.756866 278.488190,323.836792 
	C276.955658,323.836792 275.989227,323.836792 275.334717,323.836792 
	C275.334717,320.075897 275.334717,316.350006 275.334717,311.921265 
	C278.160248,312.154480 281.417938,312.423340 284.675629,312.692230 
	C284.617767,313.276093 284.559906,313.859955 284.502045,314.443817 
	C283.559418,314.320831 282.559296,313.938446 281.686798,314.131866 
	C280.129944,314.476990 278.650208,315.169861 277.138245,315.717346 
	C278.237000,316.682373 279.335785,317.647400 280.458771,318.960754 
z"/>
<path fill="#D0C7CB" opacity="1.000000" stroke="none" 
	d="
M159.505753,259.268799 
	C159.925903,270.053680 159.956375,281.024475 159.940796,292.456177 
	C159.591705,291.917755 159.028091,290.919006 159.025864,289.918976 
	C159.003418,279.764343 159.072571,269.609497 159.505753,259.268799 
z"/>
<path fill="#C4B7BE" opacity="1.000000" stroke="none" 
	d="
M314.509277,259.286377 
	C314.919769,270.055664 314.949219,281.022766 314.934937,292.450531 
	C314.594086,291.572632 314.044647,290.234863 314.040283,288.895355 
	C314.008270,279.091827 314.085480,269.287933 314.509277,259.286377 
z"/>
<path fill="#E5E5E5" opacity="1.000000" stroke="none" 
	d="
M351.495667,259.277588 
	C351.912903,270.056671 351.941681,281.022949 351.927612,292.449951 
	C351.589783,291.578125 351.044952,290.246490 351.039764,288.912781 
	C351.001648,279.097015 351.071411,269.280853 351.495667,259.277588 
z"/>
<path fill="#7F5E6B" opacity="1.000000" stroke="none" 
	d="
M385.447998,292.627960 
	C385.090027,281.926910 385.071777,270.988800 385.081085,259.592957 
	C385.405762,261.155121 385.951202,263.174255 385.957306,265.195068 
	C385.984589,274.260101 385.858459,283.325592 385.447998,292.627960 
z"/>
<path fill="#E5E5E5" opacity="1.000000" stroke="none" 
	d="
M213.784058,288.525024 
	C212.972061,288.390686 211.187897,287.886047 211.176956,287.345520 
	C211.019547,279.574005 211.075546,271.797211 211.207199,264.023865 
	C211.213135,263.672943 212.422424,263.342377 213.500336,263.046753 
	C213.281769,264.034332 212.094467,264.965302 212.072769,265.922699 
	C211.915466,272.860962 211.961563,279.804993 212.067398,286.745331 
	C212.074585,287.217438 213.089966,287.674164 213.784058,288.525024 
z"/>
<path fill="#5E3445" opacity="1.000000" stroke="none" 
	d="
M205.897675,264.553162 
	C206.145920,264.086853 206.434555,264.080872 206.723175,264.074890 
	C206.664246,272.140564 206.610733,280.206360 206.513123,288.271606 
	C206.510834,288.459900 206.012482,288.642212 205.341339,288.910248 
	C205.279999,283.469330 205.671173,277.947845 205.943588,272.420502 
	C206.064972,269.957550 205.947250,267.482849 205.897675,264.553162 
z"/>
<path fill="#C4B7BE" opacity="1.000000" stroke="none" 
	d="
M379.857605,270.511841 
	C379.825317,269.361298 379.893524,268.666840 379.961700,267.972412 
	C380.300934,267.990448 380.640167,268.008514 380.979401,268.026581 
	C380.979401,276.014374 380.979401,284.002167 380.936157,292.450806 
	C380.590332,288.089691 380.240021,283.270020 380.004822,278.444763 
	C379.883545,275.957672 379.967102,273.460541 379.857605,270.511841 
z"/>
<path fill="#BAA9B1" opacity="1.000000" stroke="none" 
	d="
M302.851929,313.250641 
	C301.722504,313.420471 300.593048,313.590332 299.670074,313.424652 
	C300.868317,313.142944 301.860138,313.196777 302.851929,313.250641 
z"/>
<path fill="#BAA9B1" opacity="1.000000" stroke="none" 
	d="
M325.849121,313.248474 
	C324.720337,313.419434 323.591522,313.590393 322.668274,313.425598 
	C323.865570,313.142731 324.857361,313.195587 325.849121,313.248474 
z"/>
<path fill="#C4B7BE" opacity="1.000000" stroke="none" 
	d="
M369.261688,313.986206 
	C369.675629,313.550385 370.436584,313.149078 371.197540,312.747772 
	C371.249359,313.030212 371.301178,313.312653 371.352997,313.595093 
	C370.771576,313.737000 370.190155,313.878876 369.261688,313.986206 
z"/>
<path fill="#47182B" opacity="1.000000" stroke="none" 
	d="
M325.729004,312.921997 
	C324.857361,313.195587 323.865570,313.142731 322.505127,313.160645 
	C323.293945,313.019440 324.451447,312.807465 325.729004,312.921997 
z"/>
<path fill="#A28A92" opacity="1.000000" stroke="none" 
	d="
M296.957275,318.000366 
	C297.112762,317.228333 297.268707,316.812195 297.784363,315.436249 
	C297.784363,317.472382 297.784363,318.511200 297.784363,320.461487 
	C297.281189,319.179962 297.119476,318.768127 296.957275,318.000366 
z"/>
<path fill="#A28A92" opacity="1.000000" stroke="none" 
	d="
M304.726776,316.746948 
	C304.841705,317.834839 304.763336,318.650391 304.684998,319.465912 
	C304.460663,319.434052 304.236328,319.402161 304.011993,319.370270 
	C304.185852,318.405060 304.359680,317.439850 304.726776,316.746948 
z"/>
<path fill="#A28A92" opacity="1.000000" stroke="none" 
	d="
M320.706787,319.322906 
	C320.324768,318.565247 320.176178,317.543732 320.027557,316.522247 
	C320.265381,316.495453 320.503235,316.468689 320.741058,316.441925 
	C320.807465,317.314301 320.873840,318.186707 320.706787,319.322906 
z"/>
<path fill="#A28A92" opacity="1.000000" stroke="none" 
	d="
M327.273132,319.235962 
	C327.158600,318.146637 327.235840,317.330811 327.313080,316.514954 
	C327.538696,316.546997 327.764313,316.579041 327.989929,316.611084 
	C327.814911,317.577209 327.639893,318.543304 327.273132,319.235962 
z"/>
<path fill="#47182B" opacity="1.000000" stroke="none" 
	d="
M302.731506,312.923950 
	C301.860138,313.196777 300.868317,313.142944 299.507812,313.159241 
	C300.296417,313.018646 301.453735,312.807922 302.731506,312.923950 
z"/>
<path fill="#A28A92" opacity="1.000000" stroke="none" 
	d="
M300.345215,322.985413 
	C300.770477,322.600342 301.522949,322.271454 302.275452,321.942566 
	C302.360413,322.195068 302.445404,322.447571 302.530396,322.700073 
	C301.911072,322.813904 301.291779,322.927765 300.345215,322.985413 
z"/>
<path fill="#A28A92" opacity="1.000000" stroke="none" 
	d="
M325.212799,322.732910 
	C324.165436,322.930206 323.384949,322.930206 322.604431,322.930206 
	C322.628845,322.640320 322.653229,322.350433 322.677643,322.060516 
	C323.611633,322.218903 324.545654,322.377258 325.212799,322.732910 
z"/>
<path fill="#BAA9B1" opacity="1.000000" stroke="none" 
	d="
M368.631836,322.688782 
	C369.054016,322.311523 369.715973,322.152161 370.377960,321.992828 
	C370.421326,322.201660 370.464691,322.410492 370.508057,322.619354 
	C369.962585,322.715149 369.417145,322.810944 368.631836,322.688782 
z"/>
<path fill="#47182B" opacity="1.000000" stroke="none" 
	d="
M232.436737,168.911118 
	C231.839569,168.962845 231.673706,168.970276 231.507828,168.971436 
	C220.061356,169.052338 217.125854,165.266678 220.044128,154.188400 
	C220.086105,154.029022 220.084076,153.840927 220.171234,153.713028 
	C223.704880,148.527252 228.986160,151.683395 233.431534,151.268570 
	C234.462341,151.172379 236.334412,154.206039 236.854828,156.068970 
	C237.456696,158.223480 237.528168,160.850479 236.843185,162.950500 
	C236.134628,165.122726 234.242477,166.908875 232.436737,168.911118 
M227.610199,158.963211 
	C227.847778,158.099701 228.085358,157.236206 228.322952,156.372696 
	C227.284302,156.522171 225.576263,156.356720 225.330444,156.879211 
	C224.541504,158.556137 224.293182,160.487396 223.836273,162.320526 
	C224.176315,162.376846 224.516342,162.433167 224.856384,162.489487 
	C225.536057,161.350891 226.215729,160.212296 227.610199,158.963211 
M231.366272,162.024765 
	C231.787018,161.280060 232.207748,160.535339 232.628479,159.790634 
	C232.374176,159.563660 232.119873,159.336700 231.865570,159.109726 
	C230.319168,160.357224 228.772766,161.604706 227.226364,162.852188 
	C227.379837,163.156189 227.533295,163.460175 227.686768,163.764160 
	C228.743896,163.327179 229.801010,162.890198 231.366272,162.024765 
z"/>
<path fill="#4D1F31" opacity="1.000000" stroke="none" 
	d="
M220.035828,211.245224 
	C219.777451,206.247330 221.248367,204.384155 226.424927,204.879257 
	C237.676956,205.955414 237.918167,205.718811 236.796936,217.074997 
	C236.638687,218.677750 234.311951,220.096024 232.910522,221.522690 
	C232.612289,221.826279 231.974258,221.891861 231.489304,221.902069 
	C222.700073,222.087097 219.378250,222.877213 220.035828,211.245224 
M232.926605,213.307968 
	C230.139679,214.458939 227.352768,215.609924 222.974274,217.418198 
	C226.921158,217.594086 229.825195,217.895279 232.685043,217.659866 
	C233.098877,217.625778 233.300751,215.017029 232.926605,213.307968 
z"/>
<path fill="#491A2D" opacity="1.000000" stroke="none" 
	d="
M219.952179,191.632019 
	C219.990448,189.356232 219.702087,187.469147 220.091415,185.734116 
	C220.657181,183.212708 221.428696,178.863556 222.608765,178.691162 
	C226.823898,178.075409 231.325577,178.538742 235.531631,179.454056 
	C236.420822,179.647552 236.883087,183.473572 236.917343,185.635803 
	C237.065933,195.008316 236.974640,195.203110 227.369583,194.849152 
	C224.858719,194.756622 222.407227,193.052612 219.952179,191.632019 
M232.740356,183.642593 
	C232.553711,180.929504 232.162155,180.887299 227.527573,180.932602 
	C224.219681,180.964920 223.373184,182.282547 224.532120,185.602646 
	C226.093201,185.046539 227.596039,184.511185 229.867554,184.010040 
	C230.640320,183.990051 231.413086,183.970062 232.740356,183.642593 
M230.416321,189.653687 
	C231.209976,188.748337 232.003632,187.842987 232.797287,186.937637 
	C232.303619,186.636139 231.809952,186.334625 231.316269,186.033127 
	C230.805206,187.229645 230.294159,188.426163 230.416321,189.653687 
z"/>
<path fill="#461629" opacity="1.000000" stroke="none" 
	d="
M276.979614,184.986053 
	C277.613800,185.650223 278.247986,186.314392 279.851440,187.993652 
	C275.125305,187.993652 271.575684,187.993698 268.026093,187.993652 
	C260.709320,187.993546 253.389236,188.106369 246.078751,187.891754 
	C244.722214,187.851913 243.404388,186.492905 242.544037,185.357391 
	C254.339478,184.976715 265.659546,184.981384 276.979614,184.986053 
z"/>
<path fill="#451528" opacity="1.000000" stroke="none" 
	d="
M277.003296,157.983841 
	C277.493225,158.884720 277.983154,159.785583 277.759705,160.829620 
	C265.387787,161.012253 253.729294,161.051697 242.070816,161.091156 
	C242.203842,160.180145 242.336868,159.269150 243.227509,158.175842 
	C254.991180,157.990326 265.997223,157.987076 277.003296,157.983841 
z"/>
<path fill="#724E5C" opacity="1.000000" stroke="none" 
	d="
M210.739502,178.999969 
	C210.739243,162.267670 210.739243,146.035370 210.739243,129.803055 
	C211.066040,129.806290 211.392838,129.809525 211.719635,129.812744 
	C211.719635,162.546158 211.719635,195.279572 211.719635,228.012985 
	C211.393021,228.017044 211.066391,228.021088 210.739777,228.025146 
	C210.739777,211.850098 210.739777,195.675034 210.739502,178.999969 
z"/>
<path fill="#A28A92" opacity="1.000000" stroke="none" 
	d="
M290.197418,210.998505 
	C290.197449,217.113800 290.197449,222.729523 290.197449,228.345261 
	C289.908264,228.340240 289.619110,228.335236 289.329926,228.330215 
	C289.329926,195.397781 289.329926,162.465347 289.329926,129.532898 
	C289.619080,129.530823 289.908234,129.528732 290.197388,129.526642 
	C290.197388,156.517410 290.197388,183.508179 290.197418,210.998505 
z"/>
<path fill="#451528" opacity="1.000000" stroke="none" 
	d="
M241.893738,213.786697 
	C241.929306,213.391953 241.964844,212.997192 242.478241,212.324066 
	C254.301804,212.027512 265.647491,212.009323 276.993164,211.991135 
	C277.483765,212.548721 277.974396,213.106308 277.820801,213.807648 
	C265.415680,213.896500 253.654709,213.841599 241.893738,213.786697 
z"/>
<path fill="#724E5C" opacity="1.000000" stroke="none" 
	d="
M241.657211,214.074753 
	C253.654709,213.841599 265.415680,213.896500 277.655151,213.977219 
	C277.941833,214.263306 277.748077,214.752762 277.558563,214.751129 
	C265.512390,214.647110 253.466553,214.503174 241.657211,214.074753 
z"/>
<path fill="#D0C7CB" opacity="1.000000" stroke="none" 
	d="
M242.251892,161.484833 
	C253.729294,161.051697 265.387787,161.012253 277.513641,160.994415 
	C277.186371,161.342316 276.392365,161.950668 275.597015,161.952393 
	C264.542419,161.976395 253.487686,161.917297 242.251892,161.484833 
z"/>
<path fill="#724E5C" opacity="1.000000" stroke="none" 
	d="
M276.748199,211.642120 
	C265.647491,212.009323 254.301804,212.027512 242.489929,212.026917 
	C242.507446,211.676163 242.992142,211.053253 243.474670,211.054932 
	C254.484344,211.093079 265.493774,211.199478 276.748199,211.642120 
z"/>
<path fill="#A28A92" opacity="1.000000" stroke="none" 
	d="
M276.791138,184.593658 
	C265.659546,184.981384 254.339478,184.976715 242.559265,184.931396 
	C243.454468,184.594086 244.809631,184.042496 246.165207,184.041443 
	C256.310974,184.033539 266.456818,184.134415 276.791138,184.593658 
z"/>
<path fill="#D0C7CB" opacity="1.000000" stroke="none" 
	d="
M276.827332,157.580841 
	C265.997223,157.987076 254.991180,157.990326 243.519623,157.981934 
	C243.701492,157.649536 244.348801,157.049728 244.996262,157.049606 
	C255.547958,157.047470 266.099670,157.121216 276.827332,157.580841 
z"/>
<path fill="#000000" opacity="1.000000" stroke="none" 
	d="
M173.047394,273.167969 
	C170.403046,273.553986 168.169739,273.858490 165.788452,274.183167 
	C165.439789,272.948273 165.080536,272.197876 165.033585,271.428406 
	C164.585327,264.080231 166.763382,262.105591 173.794418,264.277069 
	C175.740204,264.878021 178.170822,267.251526 178.453156,269.105072 
	C178.866302,271.817444 176.375671,273.270355 173.047394,273.167969 
z"/>
<path fill="#000000" opacity="1.000000" stroke="none" 
	d="
M349.666718,315.300903 
	C351.922760,320.794250 350.732117,322.668121 345.579773,322.459351 
	C344.050842,314.766998 344.676056,313.544586 349.666718,315.300903 
z"/>
<path fill="#5E3445" opacity="1.000000" stroke="none" 
	d="
M227.252808,159.018463 
	C226.215729,160.212296 225.536057,161.350891 224.856384,162.489487 
	C224.516342,162.433167 224.176315,162.376846 223.836273,162.320526 
	C224.293182,160.487396 224.541504,158.556137 225.330444,156.879211 
	C225.576263,156.356720 227.284302,156.522171 228.322937,156.372711 
	C228.085358,157.236206 227.847778,158.099701 227.252808,159.018463 
z"/>
<path fill="#5E3445" opacity="1.000000" stroke="none" 
	d="
M231.112213,162.238983 
	C229.801010,162.890198 228.743896,163.327179 227.686768,163.764160 
	C227.533295,163.460175 227.379837,163.156189 227.226364,162.852188 
	C228.772766,161.604706 230.319168,160.357224 231.865570,159.109726 
	C232.119873,159.336700 232.374176,159.563660 232.628479,159.790634 
	C232.207748,160.535339 231.787018,161.280060 231.112213,162.238983 
z"/>
<path fill="#010001" opacity="1.000000" stroke="none" 
	d="
M233.263657,213.453857 
	C233.300751,215.017029 233.098877,217.625778 232.685043,217.659866 
	C229.825195,217.895279 226.921158,217.594086 222.974274,217.418198 
	C227.352768,215.609924 230.139679,214.458939 233.263657,213.453857 
z"/>
<path fill="#000000" opacity="1.000000" stroke="none" 
	d="
M229.098877,183.975830 
	C227.596039,184.511185 226.093201,185.046539 224.532120,185.602646 
	C223.373184,182.282547 224.219681,180.964920 227.527573,180.932602 
	C232.162155,180.887299 232.553711,180.929504 232.295319,183.505005 
	C230.933136,183.570221 230.016006,183.773026 229.098877,183.975830 
z"/>
<path fill="#532738" opacity="1.000000" stroke="none" 
	d="
M230.099701,189.638184 
	C230.294159,188.426163 230.805206,187.229645 231.316269,186.033127 
	C231.809952,186.334625 232.303619,186.636139 232.797287,186.937637 
	C232.003632,187.842987 231.209976,188.748337 230.099701,189.638184 
z"/>
<path fill="#532738" opacity="1.000000" stroke="none" 
	d="
M229.483215,183.992950 
	C230.016006,183.773026 230.933136,183.570221 232.018066,183.658752 
	C231.413086,183.970062 230.640320,183.990051 229.483215,183.992950 
z"/>
</svg>